<?xml version="1.0" encoding="utf-8"?>
<?xml-stylesheet type="text/xsl" href="rss1.xsl"?>
<rss version="2.0" xmlns:atom="http://www.w3.org/2005/Atom" xmlns:content="http://purl.org/rss/1.0/modules/content/" xmlns:dc="http://purl.org/dc/elements/1.1/" xmlns:media="http://search.yahoo.com/mrss/">
<channel>
 <title>Getty</title>
 <link>http://www.gettyimg.com/</link>
 <atom:link href="http://www.gettyimg.com/" rel="self" type="application/rss+xml" />

 
                <item>
                <title><![CDATA[【Albums (lossless)】ALAC - Maroon 5 - 2012 - Overexposed (Deluxe Version) [24-bit_44.1kHz]]]></title>
                <link><![CDATA[https://sharemania.us/threads/maroon-5-2012-overexposed-deluxe-version-24-bit_44-1khz.225833/]]></link>
                <description><![CDATA[<article>
<blockquote class="messageText SelectQuoteContainer ugc baseHtml">
<img src="https://static.qobuz.com/images/covers/78/42/0060253704278_600.jpg" class="bbCodeImage LbImage" alt="[​IMG]" data-url="https://static.qobuz.com/images/covers/78/42/0060253704278_600.jpg" style=""><br>
<br>
1. One More Night<br>
2. Payphone (feat. Wiz Khalifa)<br>
3. Daylight<br>
4. Lucky Strike<br>
5. The Man Who Never Lied<br>
6. Love Somebody<br>
7. Ladykiller<br>
8. Forture Teller<br>
9. Sad<br>
10. Tickets<br>
11. Doin' Dirt<br>
12. Beautiful Goodbye<br>
13. Wipe Your Eyes<br>
14. Wasted Years<br>
15. Let's Stay Together<br>
16. One More Night (Sticky K Remix)<br>
<br>
Decided to upload this because links for the 24-bit version were dead. You're welcome.<br>
<br>
<div class="bbCodeBlock bbCodeVfcHH HiddenContent">
<div class="attribution type">Hidden Content:</div>
<blockquote>You must either reply or click 'Like' to see the hidden information contained here.</blockquote>
</div>
<div class="messageTextEndMarker">&nbsp;</div>
</blockquote>
</article>]]></description>
                <author><![CDATA[SharingIsCaring]]></author>
                </item>

                
                <item>
                <title><![CDATA[【MASTER &amp; MASTER RIP】MASTER - Doja Cat - Paint The Town Red (Master AAC 1080p)]]></title>
                <link><![CDATA[https://sharemania.us/threads/doja-cat-paint-the-town-red-master-aac-1080p.225834/]]></link>
                <description><![CDATA[<article>
<blockquote class="messageText SelectQuoteContainer ugc baseHtml">
<img src="https://i.ibb.co/6ZhhQbP/Doja-Cat-Paint-The-Town-Red-Master-AAC-1080p-mp4-thumbs.png" class="bbCodeImage LbImage" alt="[​IMG]" data-url="https://i.ibb.co/6ZhhQbP/Doja-Cat-Paint-The-Town-Red-Master-AAC-1080p-mp4-thumbs.png" style=""> <br>
<div class="bbCodeBlock bbCodeQuote">
<aside>
<blockquote class="quoteContainer"><div class="quote">General<br>
Format : MPEG-4<br>
Format profile : Base Media / Version 2<br>
Codec ID : mp42 (mp42/mp41)<br>
File size : 1.03 GiB<br>
Duration : 4 min 59 s<br>
Overall bit rate mode : Variable<br>
Overall bit rate : 29.6 Mb/s<br>
Encoded date : UTC 2023-08-04 18:20:49<br>
Tagged date : UTC 2023-08-04 18:23:24<br>
TIM : 00:00:00:00<br>
TSC : 24000<br>
TSZ : 1001<br>
Video<br>
ID : 1<br>
Format : AVC<br>
Format/Info : Advanced Video Codec<br>
Format profile : Main@L4.1<br>
Format settings : CABAC / 2 Ref Frames<br>
Format settings, CABAC : Yes<br>
Format settings, Reference fra : 2 frames<br>
Codec ID : avc1<br>
Codec ID/Info : Advanced Video Coding<br>
Duration : 4 min 59 s<br>
Bit rate mode : Variable<br>
Bit rate : 29.3 Mb/s<br>
Maximum bit rate : 768 kb/s<br>
Width : 1 920 pixels<br>
Height : 1 080 pixels<br>
Display aspect ratio : 16:9<br>
Frame rate mode : Constant<br>
Frame rate : 23.976 (24000/1001) FPS<br>
Color space : YUV<br>
Chroma subsampling : 4:2:0<br>
Bit depth : 8 bits<br>
Scan type : Progressive<br>
Bits/(Pixel*Frame) : 0.589<br>
Stream size : 1.02 GiB (99%)<br>
Language : English<br>
Encoded date : UTC 2023-08-04 18:20:50<br>
Tagged date : UTC 2023-08-04 18:20:50<br>
Color range : Limited<br>
Color primaries : BT.709<br>
Transfer characteristics : BT.709<br>
Matrix coefficients : BT.709<br>
Codec configuration box : avcC<br>
Audio<br>
ID : 2<br>
Format : AAC LC<br>
Format/Info : Advanced Audio Codec Low Complexity<br>
Codec ID : mp4a-40-2<br>
Duration : 4 min 59 s<br>
Source duration : 4 min 59 s<br>
Bit rate mode : Variable<br>
Bit rate : 317 kb/s<br>
Maximum bit rate : 375 kb/s<br>
Channel(s) : 2 channels<br>
Channel layout : L R<br>
Sampling rate : 48.0 kHz<br>
Frame rate : 46.875 FPS (1024 SPF)<br>
Compression mode : Lossy<br>
Stream size : 11.3 MiB (1%)<br>
Source stream size : 11.3 MiB (1%)<br>
Language : English<br>
Encoded date : UTC 2023-08-04 18:20:51<br>
Tagged date : UTC 2023-08-04 18:20:51</div><div class="quoteExpand quoteCut">Click to expand...</div></blockquote>
</aside>
</div><img src="https://i.ibb.co/rMs47zj/Doja-Cat-Paint-The-Town-Red-Master-AAC-1080p-mp4-snapshot-01-37-390.png" class="bbCodeImage LbImage" alt="[​IMG]" data-url="https://i.ibb.co/rMs47zj/Doja-Cat-Paint-The-Town-Red-Master-AAC-1080p-mp4-snapshot-01-37-390.png" style=""> <br>
<div class="bbCodeBlock bbCodeVfcHH HiddenContent">
<div class="attribution type">Hidden Content:</div>
<blockquote>You must reply before you can see the hidden data contained here.</blockquote>
</div>
<div class="messageTextEndMarker">&nbsp;</div>
</blockquote>
</article>]]></description>
                <author><![CDATA[Athos]]></author>
                </item>

                
                <item>
                <title><![CDATA[【Requests】[REQ VID] - Murder.by.Numbers.2002.1080p.WEB-DL.DD5.1.x265]]></title>
                <link><![CDATA[https://sharemania.us/threads/murder-by-numbers-2002-1080p-web-dl-dd5-1-x265.225835/]]></link>
                <description><![CDATA[<article>
<blockquote class="messageText SelectQuoteContainer ugc baseHtml">
<div style="text-align: center"><b><span style="color: #006666"><a href="https://www.primevideo.com/detail/Murder-by-Numbers/0IMN0CM105Z453NOSDMGUE5AU4" target="_blank" class="externalLink" rel="nofollow">https://www.primevideo.com/detail/Murder-by-Numbers/0IMN0CM105Z453NOSDMGUE5AU4</a></span><br>
</b><br>
<img src="http://imgfz.com/i/8UKxOGT.png" class="bbCodeImage LbImage" alt="[​IMG]" data-url="http://imgfz.com/i/8UKxOGT.png" style=""> ​</div>
<div class="messageTextEndMarker">&nbsp;</div>
</blockquote>
</article>]]></description>
                <author><![CDATA[j2ni]]></author>
                </item>

                
                <item>
                <title><![CDATA[【Cinema Center】MOVIE - Thirteen (2003) (1080p BluRay x265 HEVC 10bit AAC 5.1 Silence)]]></title>
                <link><![CDATA[https://sharemania.us/threads/thirteen-2003-1080p-bluray-x265-hevc-10bit-aac-5-1-silence.225832/]]></link>
                <description><![CDATA[<article>
<blockquote class="messageText SelectQuoteContainer ugc baseHtml">
<div style="text-align: center"><img src="http://imgfz.com/i/NsHv1Pd.png" class="bbCodeImage LbImage" alt="[​IMG]" data-url="http://imgfz.com/i/NsHv1Pd.png" style=""> <br>
<br>
<div class="bbCodeBlock bbCodeVfcHH HiddenContent">
<div class="attribution type">Hidden Content:</div>
<blockquote>You must either reply or click 'Like' to see the hidden information contained here.</blockquote>
</div></div>
<div class="messageTextEndMarker">&nbsp;</div>
</blockquote>
</article>]]></description>
                <author><![CDATA[j2ni]]></author>
                </item>

                </channel></rss>